<svg height='100px' width='100px'  fill="#000000" xmlns="http://www.w3.org/2000/svg" xmlns:xlink="http://www.w3.org/1999/xlink" version="1.1" x="0px" y="0px" viewBox="0 0 91 91" enable-background="new 0 0 91 91" xml:space="preserve"><g><path d="M77.186,25.027l-2.007,2.008c-0.001,0-0.001,0-0.003,0.002c0,0,0,0.002-0.001,0.002L35.062,67.15   c-0.441,0.441-0.627,1.027-0.594,1.602l-3.224,11.457c-0.205,0.73-0.003,1.514,0.529,2.053c0.401,0.404,0.942,0.623,1.496,0.623   c0.183,0,0.368-0.023,0.549-0.072l11.538-3.121c0.061,0.006,0.115,0.035,0.176,0.035c0.559,0,1.094-0.221,1.488-0.615   l42.125-42.127c1.144-1.143,1.771-2.662,1.771-4.277c-0.001-1.615-0.631-3.135-1.772-4.275l-3.4-3.402   C83.459,22.74,79.471,22.742,77.186,25.027z M76.665,31.5l6.007,6.008L45.531,74.646l-6.007-6.008L76.665,31.5z M36.298,77.781   l1.409-5.008l3.643,3.643L36.298,77.781z M86.707,32.708c0,0.492-0.19,0.953-0.537,1.301l-0.522,0.521l-6.008-6.006l0.522-0.523   c0.694-0.693,1.908-0.695,2.604,0l3.402,3.406C86.515,31.755,86.707,32.216,86.707,32.708z"></path><path d="M53.506,43.248c0-1.162-0.942-2.104-2.104-2.104H25.888c-1.163,0-2.104,0.941-2.104,2.104s0.941,2.105,2.104,2.105h25.514   C52.563,45.353,53.506,44.41,53.506,43.248z"></path><path d="M51.402,26.419H25.888c-1.163,0-2.104,0.941-2.104,2.105c0,1.162,0.941,2.104,2.104,2.104h25.514   c1.161,0,2.104-0.941,2.104-2.104C53.506,27.361,52.563,26.419,51.402,26.419z"></path><path d="M25.888,53.998c-1.163,0-2.104,0.941-2.104,2.104c0,1.164,0.941,2.104,2.104,2.104h7.263c1.163,0,2.104-0.939,2.104-2.104   c0-1.162-0.942-2.104-2.104-2.104H25.888z"></path><path d="M60.871,35.119c1.162,0,2.104-0.941,2.104-2.104V6.671c0-1.162-0.941-2.104-2.104-2.104h-9.226V2.105   C51.646,0.941,50.703,0,49.541,0c-1.163,0-2.104,0.941-2.104,2.105v2.462H33.754V2.105C33.754,0.941,32.813,0,31.65,0   c-1.163,0-2.104,0.941-2.104,2.105v2.462H15.86V2.105C15.86,0.941,14.918,0,13.756,0s-2.104,0.941-2.104,2.105v2.462H2.329   c-1.163,0-2.104,0.941-2.104,2.104v82.104c0,1.162,0.941,2.104,2.104,2.104h50.196c5.822,0,10.56-4.736,10.56-10.555v-7.629   c0-1.162-0.941-2.104-2.104-2.104c-1.162,0-2.104,0.941-2.104,2.104v7.629c0,3.5-2.85,6.348-6.352,6.348H4.434V8.775h7.218v2.416   c0,1.162,0.942,2.105,2.104,2.105s2.104-0.943,2.104-2.105V8.775h13.686v2.416c0,1.162,0.942,2.105,2.104,2.105   c1.162,0,2.104-0.943,2.104-2.105V8.775h13.682v2.416c0,1.162,0.941,2.105,2.104,2.105c1.162,0,2.104-0.943,2.104-2.105V8.775   h7.121v24.24C58.767,34.177,59.708,35.119,60.871,35.119z"></path><path d="M21.008,21.552c-0.941-0.682-2.257-0.471-2.938,0.471l-3.741,5.168l-0.401-0.316c-0.911-0.721-2.235-0.568-2.956,0.342   c-0.722,0.912-0.569,2.234,0.342,2.957l2.124,1.682c0.374,0.297,0.835,0.455,1.307,0.455c0.095,0,0.191-0.006,0.287-0.02   c0.568-0.078,1.082-0.387,1.417-0.85l5.03-6.951C22.161,23.548,21.949,22.234,21.008,21.552z"></path><path d="M21.008,35.658c-0.941-0.682-2.257-0.471-2.938,0.469l-3.741,5.17l-0.401-0.318c-0.911-0.719-2.235-0.566-2.956,0.344   c-0.722,0.912-0.569,2.234,0.342,2.955l2.124,1.684c0.374,0.297,0.835,0.456,1.307,0.456c0.095,0,0.191-0.006,0.287-0.02   c0.568-0.078,1.082-0.387,1.417-0.852l5.03-6.949C22.161,37.654,21.949,36.339,21.008,35.658z"></path><path d="M14.709,54.615c-0.392,0.389-0.616,0.932-0.616,1.486c0,0.557,0.224,1.1,0.616,1.488c0.39,0.395,0.935,0.615,1.488,0.615   c0.553,0,1.096-0.221,1.487-0.615c0.392-0.391,0.618-0.934,0.618-1.488s-0.226-1.096-0.618-1.486   C16.902,53.83,15.491,53.83,14.709,54.615z"></path></g></svg>