<svg height='100px' width='100px'  fill="#000000" xmlns="http://www.w3.org/2000/svg" data-name="Layer 1" viewBox="0 0 512 512" x="0px" y="0px"><title>Gog Idea</title><g data-name="Group"><path data-name="Compound Path" d="M488.009,92.106l-13.54-1.317a77.838,77.838,0,0,0-6.456-15.5l8.681-10.447a8,8,0,0,0-.453-10.723L458.169,35.807a7.994,7.994,0,0,0-10.791-.541L436.9,43.947a79.421,79.421,0,0,0-15.464-6.54l-1.317-13.421A7.79,7.79,0,0,0,412.153,17h-25.96a7.79,7.79,0,0,0-7.963,6.986l-1.317,13.538a77.928,77.928,0,0,0-15.5,6.455L350.965,35.3a8,8,0,0,0-10.76.49l-18.31,18.3a8,8,0,0,0-.5,10.756l8.681,10.481a79.4,79.4,0,0,0-6.54,15.464l-13.483,1.316A7.841,7.841,0,0,0,303,100.069v25.96a7.841,7.841,0,0,0,7.048,7.963l13.569,1.317a77.979,77.979,0,0,0,6.47,15.5l-8.674,10.447a8,8,0,0,0,.493,10.76l18.305,18.311a8,8,0,0,0,10.757.5l10.482-8.682a79.333,79.333,0,0,0,15.464,6.54l1.317,13.872A8.18,8.18,0,0,0,386.193,210h25.96a8.181,8.181,0,0,0,7.963-7.437l1.318-13.764a78.3,78.3,0,0,0,15.5-6.567l10.447,8.626a8,8,0,0,0,10.76-.518l18.31-18.317a8,8,0,0,0,.5-10.762l-8.682-10.485a79.338,79.338,0,0,0,6.542-15.472l13.2-1.312A7.8,7.8,0,0,0,495,126.029v-25.96A7.794,7.794,0,0,0,488.009,92.106ZM479,118.771l-11.542,1.15a7.864,7.864,0,0,0-6.921,6.271,63.341,63.341,0,0,1-8.809,21,8.005,8.005,0,0,0,.59,9.44l7.655,9.225-8,8.011-9.222-7.639a8,8,0,0,0-9.538-.5,61.415,61.415,0,0,1-20.894,8.8,8.238,8.238,0,0,0-6.272,7.256L404.888,194H393.459L392.3,181.79a8.118,8.118,0,0,0-6.273-7.154,63.648,63.648,0,0,1-21-8.921,8,8,0,0,0-9.439.535l-9.226,7.627-8.011-8.018,7.64-9.228a8,8,0,0,0,.494-9.542,61.453,61.453,0,0,1-8.8-20.9,7.791,7.791,0,0,0-6.867-6.272L319,118.763V107.335l11.821-1.157a7.9,7.9,0,0,0,6.96-6.272,63.343,63.343,0,0,1,8.824-21,8,8,0,0,0-.584-9.44l-7.651-9.225,8-8.011,9.223,7.64a8,8,0,0,0,9.538.494,61.423,61.423,0,0,1,20.894-8.8,7.722,7.722,0,0,0,6.272-6.8L393.459,33h11.429l1.157,11.759a7.861,7.861,0,0,0,6.272,6.929,63.3,63.3,0,0,1,21,8.808,8,8,0,0,0,9.44-.592l9.189-7.625,7.845,7.938-7.669,9.257a8,8,0,0,0-.5,9.538,61.425,61.425,0,0,1,8.8,20.894,7.726,7.726,0,0,0,6.81,6.272L479,107.335Z"></path><path data-name="Compound Path" d="M399.173,67.534a45.515,45.515,0,1,0,45.515,45.515A45.567,45.567,0,0,0,399.173,67.534Zm0,75.03a29.515,29.515,0,1,1,29.515-29.515A29.548,29.548,0,0,1,399.173,142.564Z"></path><path data-name="Compound Path" d="M360.725,287,329.9,284.026a140.5,140.5,0,0,0-15.5-36.8l19.586-23.657a8,8,0,0,0-.472-10.723l-34.288-34.726a8,8,0,0,0-10.8-.541l-23.708,19.632a143.4,143.4,0,0,0-36.744-15.524l-2.97-30.631a7.852,7.852,0,0,0-7.963-7.06H167.819a7.852,7.852,0,0,0-7.963,7.06l-2.968,30.714a140.3,140.3,0,0,0-36.8,15.443L96.435,177.6a8,8,0,0,0-10.76.494L50.948,212.819a8,8,0,0,0-.5,10.757l19.632,23.706a143.363,143.363,0,0,0-15.523,36.744L23.991,287A7.793,7.793,0,0,0,17,294.958V344.19a7.793,7.793,0,0,0,6.991,7.963l30.679,2.969A140.181,140.181,0,0,0,70.1,391.917L50.475,415.575a8,8,0,0,0,.488,10.759l34.719,34.727a8,8,0,0,0,10.756.5l23.706-19.632a143.416,143.416,0,0,0,36.744,15.524l2.969,30.557A7.788,7.788,0,0,0,167.819,495h49.233a7.79,7.79,0,0,0,7.963-6.986l2.968-30.677a140.246,140.246,0,0,0,36.8-15.425l23.659,19.623a8,8,0,0,0,10.759-.49l34.727-34.719a7.993,7.993,0,0,0,.5-10.755l-19.633-23.706a143.352,143.352,0,0,0,15.525-36.75l30.415-2.963A8.036,8.036,0,0,0,368,344.19V294.958A8.036,8.036,0,0,0,360.725,287ZM352,336.933l-28.865,2.812a8.024,8.024,0,0,0-7.064,6.271,127.588,127.588,0,0,1-17.815,42.191,8,8,0,0,0,.556,9.439l18.65,22.524L293.034,444.6l-22.526-18.653a8,8,0,0,0-9.54-.494,123.723,123.723,0,0,1-42.09,17.738,7.725,7.725,0,0,0-6.272,6.806L209.786,479h-34.7l-2.819-29.006a7.861,7.861,0,0,0-6.273-6.929,127.393,127.393,0,0,1-42.19-17.743,8,8,0,0,0-9.44.592L91.839,444.582,67.412,420.163l18.652-22.52a8,8,0,0,0,.5-9.538,123.71,123.71,0,0,1-17.74-42.09,7.727,7.727,0,0,0-6.81-6.271L33,336.924v-34.7l29.01-2.82a7.862,7.862,0,0,0,6.931-6.273,127.4,127.4,0,0,1,17.745-42.19,8,8,0,0,0-.591-9.44L67.427,218.978l24.419-24.427L114.367,213.2a8,8,0,0,0,9.538.494,123.717,123.717,0,0,1,42.089-17.739,7.805,7.805,0,0,0,6.272-6.879L175.085,160h34.7l2.819,29.08a7.9,7.9,0,0,0,6.273,6.965,127.467,127.467,0,0,1,42.19,17.762,8,8,0,0,0,9.44-.582L293,194.591l24.053,24.356L298.367,241.5a8,8,0,0,0-.5,9.539,123.729,123.729,0,0,1,17.738,42.089,8.05,8.05,0,0,0,7.095,6.272l29.3,2.82Z"></path><path data-name="Compound Path" d="M192.436,215.72A103.854,103.854,0,1,0,296.29,319.574,103.972,103.972,0,0,0,192.436,215.72Zm0,191.708a87.854,87.854,0,1,1,87.854-87.854A87.954,87.954,0,0,1,192.436,407.428Z"></path><path data-name="Compound Path" d="M195.273,278.693a45.458,45.458,0,0,0-33.764,12.114A41.693,41.693,0,0,0,148.295,321.5c0,15.44,8.705,29.7,22.705,37.326V377.1A13.6,13.6,0,0,0,184.383,391H200.64c7.571,0,13.36-6.33,13.36-13.9v-18.37a42.3,42.3,0,0,0,22.715-37.382C236.634,298.8,218.534,280.06,195.273,278.693ZM200.64,379H184.383c-.955,0-1.383-.947-1.383-1.9V369h19v8.1C202,378.053,201.6,379,200.64,379Zm5.189-29.551A6.176,6.176,0,0,0,202,354.967V357H183v-1.891a6.165,6.165,0,0,0-3.746-5.486c-11.517-5.1-19.046-16.138-19.046-28.125a29.935,29.935,0,0,1,9.577-21.96,33.266,33.266,0,0,1,22.805-8.924c.665,0,1.323.019,1.991.058,16.666.98,30.174,14.76,30.232,30.718A30.652,30.652,0,0,1,205.829,349.449Z"></path><path data-name="Path" d="M193,274.025a6,6,0,0,0,6-6V249.17a6,6,0,1,0-12,0v18.855A6,6,0,0,0,193,274.025Z"></path><path data-name="Path" d="M240.2,320a6,6,0,0,0,6,6h19.623a6,6,0,0,0,0-12H246.2A6,6,0,0,0,240.2,320Z"></path><path data-name="Path" d="M138.821,314H119.2a6,6,0,1,0,0,12h19.623a6,6,0,1,0,0-12Z"></path><path data-name="Path" d="M230.346,289.109a5.982,5.982,0,0,0,4.132-1.65l13.971-13.273a6,6,0,0,0-8.265-8.7l-13.972,13.274a6,6,0,0,0,4.134,10.35Z"></path><path data-name="Path" d="M150.544,287.459a6,6,0,0,0,8.266-8.7l-13.972-13.274a6,6,0,0,0-8.266,8.7Z"></path></g></svg>